<svg id="Layer_1" data-name="Layer 1" xmlns="http://www.w3.org/2000/svg" xmlns:xlink="http://www.w3.org/1999/xlink" viewBox="0 0 384 100"><defs><style>.cls-1{fill:none;}.cls-2{fill:#fff;}.cls-3{clip-path:url(#clip-path);}.cls-4{fill:#fbab29;}.cls-5{fill:#794ea0;}.cls-6{fill:#6c429a;}.cls-7{fill:#e24498;}.cls-8{fill:#462773;}.cls-9{fill:#5d2d90;}.cls-10{fill:#ffd84f;}.cls-11{fill:#fbc714;}.cls-12{fill:#dc2f92;}</style><clipPath id="clip-path"><circle class="cls-1" cx="59.66" cy="50.34" r="45.16"/></clipPath></defs><path class="cls-2" d="M259.86,11.36q0,2.91-3.52,2.93t-3.54-2.91c0-2,1.17-2.92,3.52-2.93S259.85,9.41,259.86,11.36Z"/><path class="cls-2" d="M144.84,46Q127,46.09,127,34.4l-.07-18.81Q126.85,4,144.37,3.9l13.57,0q17.52-.08,17.57,11.55l.08,18.8q0,11.69-17.79,11.76Zm24.1-30.46q0-6.75-11.1-6.72l-13.33.06q-11.08,0-11,6.8l.07,18.5q0,6.87,11.23,6.83L157.84,41q11.21,0,11.17-6.92Z"/><path class="cls-2" d="M186.28,45.85l0,8c0,1.71-1.06,2.56-3.21,2.57s-3.23-.84-3.24-2.54L179.75,26q0-9.67,15.67-9.74l12.23-.05q15.71-.06,15.74,9.62l0,10.29q0,9.61-15.66,9.67Zm0-4.93,21.67-.09q9,0,9-4.66l0-10.41q0-4.62-9-4.58l-12.66.05q-9,0-9,4.66Z"/><path class="cls-2" d="M237.3,21.06l.09,22.33c0,1.71-1,2.56-3.15,2.57s-3.29-.84-3.3-2.54l-.09-22.34h-2.49c-2,0-3-.78-3-2.36s1-2.38,3-2.38h2.5l0-5.6c0-1.7,1.05-2.56,3.16-2.57s3.29.84,3.29,2.54l0,5.6,10.46,0c2,0,3.05.78,3.06,2.36s-1,2.38-3,2.39Z"/><path class="cls-2" d="M253.06,18.26c0-1.71,1.06-2.56,3.21-2.57s3.23.84,3.24,2.54l.1,25.08c0,1.7-1.07,2.56-3.22,2.57s-3.23-.84-3.24-2.55Z"/><path class="cls-2" d="M315,25.19c0-3-2.45-4.43-7.32-4.41l-4.39,0q-7.54,0-7.53,4.47l.08,17.89c0,1.71-1.05,2.56-3.16,2.57s-3.23-.84-3.23-2.54l-.07-17.89c0-3-2.52-4.44-7.51-4.42l-4.38,0q-7.25,0-7.22,4.47l.07,17.89c0,1.71-1.07,2.56-3.22,2.57s-3.23-.84-3.23-2.54L263.8,25.4q0-9.43,13.83-9.49l4.45,0q6.81,0,10.48,3.49,3.69-3.54,10.45-3.57l4.44,0q13.94,0,14,9.38l.07,17.89c0,1.7-1.07,2.56-3.22,2.57s-3.23-.84-3.23-2.54Z"/><path class="cls-2" d="M337.09,45.25q-13,.06-13.06-8V33.74q0-8,13-8.08l25.86-.11v-.91q0-4.26-7.5-4.23l-8.58,0c-2,0-3.05-.77-3.06-2.36s1-2.44,3-2.44l8.58,0q13.81,0,13.85,9l0,11.92q0,8.6-13.23,8.64Zm18.54-4.82q7.31,0,7.29-4l0-6.64-25.38.1c-4.75,0-7.11,1.27-7.11,3.74l0,3.17c0,2.51,2.38,3.76,7.13,3.74Z"/><path class="cls-2" d="M373.25,4.39c0-1.7,1.07-2.56,3.22-2.56s3.23.83,3.24,2.54l.15,38.46c0,1.71-1.07,2.56-3.22,2.57s-3.23-.84-3.23-2.54Z"/><path class="cls-2" d="M152.38,59.23a2.49,2.49,0,0,1,1.55.43,3.13,3.13,0,0,1,.89,1.14L165,83.69l8.67-23A2.23,2.23,0,0,1,176,59.23a2.73,2.73,0,0,1,1.7.5,1.61,1.61,0,0,1,.65,1.38,2.93,2.93,0,0,1,0,.49,3.58,3.58,0,0,1-.26.76L167.76,88.79a3.71,3.71,0,0,1-1,1.4,2.41,2.41,0,0,1-1.57.43,2.65,2.65,0,0,1-1.7-.47,3.69,3.69,0,0,1-.95-1.36l-10.2-22.63L142.19,88.79a3.59,3.59,0,0,1-1,1.36,2.6,2.6,0,0,1-1.69.47,2.41,2.41,0,0,1-1.57-.43,3.71,3.71,0,0,1-1-1.4L126.69,62.36a2.71,2.71,0,0,1-.26-.76,3,3,0,0,1-.05-.49,1.64,1.64,0,0,1,.63-1.38,3.27,3.27,0,0,1,3.23-.14,2.37,2.37,0,0,1,.85,1.12l8.62,22.93L149.94,60.8a3.34,3.34,0,0,1,.88-1.14A2.44,2.44,0,0,1,152.38,59.23Z"/><path class="cls-2" d="M180.47,81v2.72q0,3.18,6.06,3.18H193c1.46,0,2.18.58,2.18,1.74s-.72,1.74-2.18,1.74h-6.44q-10.64,0-10.63-6.61V75q0-6.36,9.5-6.35H198q9.28,0,9.28,5.72v5c0,1.07-.67,1.61-2,1.61Zm0-3.09h21.87c.23,0,.35-.1.35-.31V75.28q0-3.07-5.06-3.08h-12q-5.19,0-5.19,3.08Z"/><path class="cls-2" d="M220.46,90.39q-11.25,0-11.24-7.06V60.49c0-1.26.77-1.88,2.31-1.88s2.31.62,2.31,1.88v8.18h15.37q11.23,0,11.24,7.11v7.55q0,7.07-11.24,7.06Zm-6.62-18.06v11c0,2.26,2.14,3.39,6.44,3.39h9.06q6.45,0,6.45-3.39V75.73c0-2.26-2.15-3.4-6.45-3.4Z"/><path class="cls-2" d="M272.81,82.12h-22l-4.48,7.2a2.57,2.57,0,0,1-2.27,1.3,2.94,2.94,0,0,1-1.74-.47,1.56,1.56,0,0,1-.65-1.36,2.18,2.18,0,0,1,.08-.65,2.75,2.75,0,0,1,.4-.74l17.24-27a2.16,2.16,0,0,1,1-.89,4,4,0,0,1,1.37-.32,2.61,2.61,0,0,1,2.31,1.21l17.28,26.91a2.77,2.77,0,0,1,.46.76,2.15,2.15,0,0,1,.11.68,1.58,1.58,0,0,1-.65,1.36,3,3,0,0,1-1.74.47,2.54,2.54,0,0,1-2.23-1.3ZM253,78.68h17.68l-8.88-14.13Z"/><path class="cls-2" d="M287.83,90.39V96.3c0,1.25-.77,1.87-2.31,1.87s-2.31-.62-2.31-1.87V75.78q0-7.11,11.24-7.11h8.75q11.25,0,11.24,7.11v7.55q0,7.07-11.24,7.06Zm0-3.62h15.5q6.45,0,6.45-3.39V75.73c0-2.26-2.15-3.4-6.45-3.4h-9.05c-4.3,0-6.45,1.14-6.45,3.4Z"/><path class="cls-2" d="M321.93,90.39V96.3c0,1.25-.77,1.87-2.31,1.87s-2.3-.62-2.3-1.87V75.78q0-7.11,11.23-7.11h8.76q11.24,0,11.23,7.11v7.55q0,7.07-11.23,7.06Zm0-3.62h15.51q6.44,0,6.44-3.39V75.73c0-2.26-2.15-3.4-6.44-3.4h-9.06c-4.3,0-6.45,1.14-6.45,3.4Z"/><path class="cls-2" d="M379.51,85.39q0,5-9.93,5h-17c-1.45,0-2.18-.58-2.18-1.74s.73-1.74,2.18-1.74h17q5.35,0,5.35-1.52V82.88q0-1.51-5.35-1.52h-9q-9.93,0-9.93-4.87v-2.1q0-5.73,10.23-5.72h6c1.48,0,2.22.59,2.22,1.79a1.51,1.51,0,0,1-.59,1.31,2.7,2.7,0,0,1-1.63.43h-6q-5.7,0-5.7,2.19v2c0,1.22,1.88,1.83,5.66,1.83h9q9.66,0,9.67,4.56Z"/><g class="cls-3"><path class="cls-4" d="M44.66,34.79a6.17,6.17,0,0,0-1-.61L45.57-.71,66,17.53A5.93,5.93,0,0,0,65.5,20a6.07,6.07,0,0,0,.17,1.42Z"/><path class="cls-5" d="M41.6,68.84a7.47,7.47,0,0,0-.83.62L16.87,53.57,36.73,44a6.11,6.11,0,0,0,2.9,1.63Z"/><path class="cls-6" d="M75.77,58a8.94,8.94,0,0,0-.1,1.27,8.62,8.62,0,0,0,.14,1.53l-26.42,9.4A5.92,5.92,0,0,0,45.78,68L43.84,45.12a6.2,6.2,0,0,0,1.7-1.3Z"/><path class="cls-7" d="M80,52a8.39,8.39,0,0,0-2.52,2.15L47.14,39.9c0-.06,0-.13,0-.2A6.37,6.37,0,0,0,47,38.31L68.08,24.88a5.93,5.93,0,0,0,3.35,1h.18Z"/><path class="cls-8" d="M38.37,90.67l5.07-10.93a6.16,6.16,0,0,0,1.3.15,6,6,0,0,0,2.58-.59l30.22,22.82a121.24,121.24,0,0,1-15.83,1.13,142.56,142.56,0,0,1-20.32-1.79,50.62,50.62,0,0,0-3-10.79"/><path class="cls-9" d="M11.84,55.23l27,18c0,.23,0,.45,0,.68a5.89,5.89,0,0,0,1.11,3.45l-7.2,16.36c-.65-1.28-15.06-3.35-15.81-4.61-3.75-6.33-.57-23.22-4.59-29.35-.69-1.06-10.55-7.41-2.74-4.54"/><path class="cls-5" d="M14.38,29.22,35,38.89a5.34,5.34,0,0,0-.05.81c0,.15,0,.29,0,.44L10.09,52.26c-1-3.38,3.16-9.35,3.16-13.28a42.61,42.61,0,0,1,1.13-9.76"/><path class="cls-4" d="M41.4-2l-2,35.81A6.13,6.13,0,0,0,37,35.15l-21.43-10c.44-1.29.94-2.55,1.5-3.79A45.32,45.32,0,0,1,41.4-2"/><path class="cls-10" d="M76.19-3.94l-4.88,18a5.87,5.87,0,0,0-2.26.49L48-4.21a54.16,54.16,0,0,1,28.17.27"/><path class="cls-11" d="M101.05,12.55,76.53,17a6,6,0,0,0-1.22-1.47L80.22-2.63a46.42,46.42,0,0,1,20.83,15.18"/><path class="cls-7" d="M104.42,17.64,86.77,51.39a8.26,8.26,0,0,0-2.69-.47L75.52,24.28a6,6,0,0,0,1.73-3.15l26.43-4.76c.25.42.5.84.74,1.27"/><path class="cls-12" d="M102.12,71.24,91.73,62.4a8.45,8.45,0,0,0,.61-3.15,8.32,8.32,0,0,0-2-5.48l16.45-31.46A42.79,42.79,0,0,1,110.13,39c0,9.51,1.34,20-3.78,27.76-.9,1.38-2.39.71-3.33,2.06"/><path class="cls-9" d="M82.19,100.32,50.25,76.21a5.84,5.84,0,0,0,.45-2l26.94-9.58a8.32,8.32,0,0,0,11.55,1.16l11,8c-2.47,3.46-3.59,9-5.77,12.71-3.51,5.93-11,7.26-12.25,13.83"/></g><path class="cls-12" d="M116.62,54.12A5.92,5.92,0,1,1,110.7,60a5.92,5.92,0,0,1,5.92-5.92"/><path class="cls-9" d="M7.89,68.81a5,5,0,1,1-5,5,5,5,0,0,1,5-5"/><path class="cls-12" d="M17.33,2.86a5.92,5.92,0,1,1-5.92,5.92,5.93,5.93,0,0,1,5.92-5.92"/><path class="cls-9" d="M108.1,70.52a1.53,1.53,0,1,1-1.53,1.53,1.54,1.54,0,0,1,1.53-1.53"/><path class="cls-10" d="M118.49,47.36a2.81,2.81,0,1,0-2.81-2.81,2.81,2.81,0,0,0,2.81,2.81"/><path class="cls-4" d="M7.89,25.83a2.32,2.32,0,1,0-2.32-2.32,2.32,2.32,0,0,0,2.32,2.32"/></svg>